<?xml version="1.0" encoding="UTF-8"?>
<svg id="my_artwork" xmlns="http://www.w3.org/2000/svg" version="1.1" xmlns:xlink="http://www.w3.org/1999/xlink" viewBox="0 0 1156.18 309.16">
  <!-- Generator: Adobe Illustrator 30.0.0, SVG Export Plug-In . SVG Version: 2.1.1 Build 123)  -->
  <defs>
    <linearGradient id="linear-gradient" x1="79.5" y1="210.32" x2="193.76" y2="96.07" gradientUnits="userSpaceOnUse">
      <stop offset="0" stop-color="#69c394"/>
      <stop offset="1" stop-color="#17adbd"/>
    </linearGradient>
  </defs>
  <g>
    <path d="M328.13,212.62l-12.84-15.39c-3.56.89-7.19,1.33-10.9,1.33-7.92,0-15.19-1.86-21.81-5.57-6.62-3.71-11.87-8.86-15.75-15.45-3.88-6.58-5.82-14.03-5.82-22.35s1.94-15.65,5.82-22.23c3.88-6.58,9.13-11.73,15.75-15.45,6.62-3.71,13.89-5.57,21.81-5.57s15.29,1.86,21.87,5.57c6.58,3.72,11.79,8.87,15.63,15.45,3.84,6.58,5.76,13.99,5.76,22.23,0,7.51-1.6,14.36-4.79,20.54-3.19,6.18-7.53,11.21-13.02,15.08l19.39,21.81h-21.08ZM281.73,170.09c2.18,4.28,5.23,7.57,9.15,9.87,3.92,2.3,8.42,3.45,13.51,3.45s9.57-1.15,13.45-3.45c3.88-2.3,6.91-5.59,9.09-9.87,2.18-4.28,3.27-9.25,3.27-14.9s-1.09-10.6-3.27-14.84c-2.18-4.24-5.21-7.49-9.09-9.75-3.88-2.26-8.36-3.39-13.45-3.39s-9.59,1.13-13.51,3.39c-3.92,2.26-6.97,5.51-9.15,9.75-2.18,4.24-3.27,9.19-3.27,14.84s1.09,10.62,3.27,14.9Z" style="fill: #121213;"/>
    <path d="M424.46,130.59v67.12h-17.08v-8.48c-2.18,2.91-5.03,5.19-8.54,6.85s-7.33,2.48-11.45,2.48c-5.25,0-9.9-1.11-13.93-3.33-4.04-2.22-7.21-5.49-9.51-9.81-2.3-4.32-3.45-9.47-3.45-15.45v-39.38h16.96v36.96c0,5.33,1.33,9.43,4,12.3,2.67,2.87,6.3,4.3,10.9,4.3s8.36-1.43,11.03-4.3c2.67-2.87,4-6.97,4-12.3v-36.96h17.08Z" style="fill: #121213;"/>
    <path d="M441.48,145.86c2.71-5.25,6.38-9.29,11.03-12.12,4.64-2.83,9.83-4.24,15.57-4.24,5.01,0,9.39,1.01,13.15,3.03,3.76,2.02,6.76,4.56,9.03,7.63v-9.57h17.08v67.12h-17.08v-9.81c-2.18,3.15-5.19,5.76-9.03,7.82-3.84,2.06-8.26,3.09-13.27,3.09-5.66,0-10.8-1.45-15.45-4.36-4.65-2.91-8.32-7.01-11.03-12.3-2.71-5.29-4.06-11.37-4.06-18.24s1.35-12.8,4.06-18.05ZM487.82,153.55c-1.62-2.95-3.8-5.21-6.54-6.79-2.75-1.58-5.69-2.36-8.84-2.36s-6.06.77-8.72,2.3c-2.67,1.54-4.83,3.78-6.48,6.72-1.66,2.95-2.48,6.44-2.48,10.48s.83,7.57,2.48,10.6c1.65,3.03,3.84,5.35,6.54,6.97,2.71,1.62,5.59,2.42,8.66,2.42s6.1-.79,8.84-2.36c2.75-1.58,4.93-3.84,6.54-6.79,1.61-2.95,2.42-6.48,2.42-10.6s-.81-7.65-2.42-10.6Z" style="fill: #121213;"/>
    <path d="M581.12,137.19c4.93,5.05,7.39,12.1,7.39,21.14v39.38h-16.96v-37.08c0-5.33-1.33-9.43-4-12.3-2.67-2.87-6.3-4.3-10.9-4.3s-8.38,1.44-11.09,4.3c-2.71,2.87-4.06,6.97-4.06,12.3v37.08h-16.96v-67.12h16.96v8.36c2.26-2.91,5.15-5.19,8.66-6.85,3.51-1.65,7.37-2.48,11.57-2.48,8,0,14.46,2.53,19.39,7.57Z" style="fill: #121213;"/>
    <path d="M624.98,144.52v32.47c0,2.26.54,3.9,1.63,4.91,1.09,1.01,2.93,1.51,5.51,1.51h7.88v14.3h-10.66c-14.3,0-21.45-6.95-21.45-20.84v-32.35h-8v-13.93h8v-16.6h17.08v16.6h15.02v13.93h-15.02Z" style="fill: #121213;"/>
    <path d="M716.21,130.59v67.12h-17.08v-8.48c-2.18,2.91-5.03,5.19-8.54,6.85s-7.33,2.48-11.45,2.48c-5.25,0-9.9-1.11-13.93-3.33-4.04-2.22-7.21-5.49-9.51-9.81-2.3-4.32-3.45-9.47-3.45-15.45v-39.38h16.96v36.96c0,5.33,1.33,9.43,4,12.3,2.67,2.87,6.3,4.3,10.9,4.3s8.36-1.43,11.03-4.3c2.67-2.87,4-6.97,4-12.3v-36.96h17.08Z" style="fill: #121213;"/>
    <path d="M836.83,137.19c5.05,5.05,7.57,12.1,7.57,21.14v39.38h-16.96v-37.08c0-5.25-1.33-9.27-4-12.06-2.67-2.79-6.3-4.18-10.91-4.18s-8.26,1.39-10.96,4.18c-2.71,2.79-4.06,6.81-4.06,12.06v37.08h-16.96v-37.08c0-5.25-1.33-9.27-4-12.06-2.67-2.79-6.3-4.18-10.9-4.18s-8.38,1.39-11.09,4.18c-2.71,2.79-4.06,6.81-4.06,12.06v37.08h-16.96v-67.12h16.96v8.12c2.18-2.83,4.99-5.05,8.42-6.66,3.43-1.61,7.21-2.42,11.33-2.42,5.25,0,9.94,1.11,14.06,3.33,4.12,2.22,7.31,5.39,9.57,9.51,2.18-3.88,5.35-6.99,9.51-9.33,4.16-2.34,8.66-3.51,13.51-3.51,8.24,0,14.88,2.53,19.93,7.57Z" style="fill: #121213;"/>
    <path d="M910.92,175.9h-40.35l-8.12,21.81h-5.94l31.26-83.12h6.06l31.14,83.12h-5.94l-8.12-21.81ZM909.23,171.3l-18.42-49.56-18.54,49.56h36.96Z" style="fill: #121213;"/>
    <path d="M944.73,108.05v89.66h-5.45v-89.66h5.45Z" style="fill: #121213;"/>
    <path d="M1011.37,136.1c4.85,3.35,8.24,7.65,10.18,12.9v-17.08h5.45v67.85c0,6.06-1.33,11.37-4,15.93-2.67,4.56-6.26,8.08-10.78,10.54-4.52,2.46-9.57,3.7-15.15,3.7-8.24,0-15.07-1.98-20.48-5.94-5.41-3.96-8.97-9.29-10.66-15.99h5.45c1.62,5.25,4.64,9.43,9.09,12.54,4.44,3.11,9.97,4.66,16.6,4.66,4.6,0,8.76-1.03,12.48-3.09,3.71-2.06,6.64-5.01,8.78-8.85,2.14-3.84,3.21-8.34,3.21-13.51v-19.26c-1.94,5.25-5.35,9.59-10.24,13.02-4.89,3.43-10.76,5.15-17.63,5.15-6.14,0-11.61-1.39-16.42-4.18-4.81-2.79-8.56-6.74-11.27-11.87-2.71-5.13-4.06-11.09-4.06-17.87s1.35-12.72,4.06-17.81c2.71-5.09,6.46-9.01,11.27-11.75,4.8-2.75,10.28-4.12,16.42-4.12,6.95,0,12.84,1.68,17.69,5.03ZM1017.97,149.55c-2.38-4.4-5.63-7.79-9.75-10.18-4.12-2.38-8.72-3.57-13.81-3.57s-10.02,1.15-14.05,3.45c-4.04,2.3-7.19,5.63-9.45,10-2.26,4.36-3.39,9.53-3.39,15.51s1.13,11.15,3.39,15.51c2.26,4.36,5.43,7.71,9.51,10.06,4.08,2.34,8.74,3.51,13.99,3.51s9.71-1.19,13.87-3.57c4.16-2.38,7.41-5.77,9.75-10.18,2.34-4.4,3.51-9.51,3.51-15.33s-1.19-10.8-3.57-15.21Z" style="fill: #121213;"/>
    <path d="M1059.83,194.56c-4.93-2.75-8.78-6.68-11.57-11.81-2.79-5.13-4.18-11.13-4.18-17.99s1.41-12.74,4.24-17.87c2.83-5.13,6.72-9.05,11.69-11.75,4.97-2.71,10.52-4.06,16.66-4.06s11.67,1.35,16.6,4.06c4.93,2.71,8.78,6.6,11.57,11.69,2.79,5.09,4.18,11.07,4.18,17.93s-1.41,12.86-4.24,17.99c-2.83,5.13-6.72,9.07-11.69,11.81-4.97,2.75-10.52,4.12-16.66,4.12s-11.67-1.37-16.6-4.12ZM1089.82,190.63c4.16-2.14,7.49-5.39,10-9.75,2.5-4.36,3.76-9.73,3.76-16.11s-1.25-11.63-3.76-15.99c-2.5-4.36-5.82-7.61-9.94-9.75-4.12-2.14-8.56-3.21-13.33-3.21s-9.19,1.07-13.27,3.21c-4.08,2.14-7.37,5.39-9.88,9.75-2.5,4.36-3.76,9.69-3.76,15.99s1.23,11.75,3.7,16.11c2.46,4.36,5.73,7.61,9.81,9.75,4.08,2.14,8.5,3.21,13.27,3.21s9.23-1.07,13.39-3.21Z" style="fill: #121213;"/>
  </g>
  <path d="M233.64,139.9c-.01-.13-.04-.25-.05-.38-.04-.27-.08-.54-.13-.81-.03-.14-.06-.28-.09-.41-.06-.26-.13-.52-.21-.77-.04-.12-.07-.24-.12-.36-.1-.3-.22-.59-.34-.88-.03-.06-.05-.12-.08-.18-1.35-2.95-3.85-5.29-6.98-6.33-.84-.29-1.72-.48-2.63-.57-32.02-4.67-57.44-29.96-62.3-61.92-.33-6.2-5.51-11.25-11.93-11.25h-24.27c-5.19,0-9.76,3.32-11.33,8.1-.33.93-.53,1.91-.62,2.92-4.82,32.02-30.25,57.37-62.31,62.04-.91.09-1.79.28-2.63.57-3.14,1.04-5.64,3.38-6.98,6.33-.03.06-.05.12-.08.18-.12.29-.24.58-.34.87-.04.12-.08.24-.12.36-.08.25-.15.51-.21.77-.03.14-.07.27-.09.41-.05.27-.1.54-.13.81-.02.13-.04.25-.05.38-.04.4-.07.8-.07,1.21h0v24.27h0c0,.41.03.82.07,1.22.01.13.03.25.05.38.04.27.08.54.13.81.03.14.06.28.09.41.06.26.13.52.21.77.04.12.07.24.12.36.1.3.22.59.34.88.03.06.05.12.08.18,1.35,2.95,3.85,5.29,6.98,6.33.84.29,1.72.48,2.63.57,32.02,4.67,57.44,29.96,62.3,61.92.33,6.2,5.51,11.25,11.93,11.25h24.27c5.19,0,9.76-3.32,11.33-8.1.33-.93.53-1.91.62-2.92,4.82-32.02,30.25-57.37,62.31-62.04.91-.09,1.79-.28,2.63-.57,3.14-1.04,5.64-3.38,6.98-6.33.03-.06.05-.12.08-.18.12-.29.24-.58.34-.87.04-.12.08-.24.12-.36.08-.25.15-.51.21-.77.03-.14.07-.27.09-.41.05-.27.1-.54.13-.81.02-.13.04-.25.05-.38.04-.4.07-.8.07-1.21h0v-24.27h0c0-.41-.03-.82-.07-1.22ZM158.34,159.05c-5.68,4.88-10.98,10.18-15.87,15.86-3.06,3.55-8.52,3.55-11.57,0-4.92-5.72-10.26-11.06-15.98-15.98-3.55-3.06-3.55-8.52,0-11.58,5.68-4.88,10.98-10.18,15.87-15.86,3.06-3.55,8.52-3.55,11.57,0,4.92,5.72,10.26,11.06,15.98,15.98,3.55,3.06,3.55,8.52,0,11.58Z" style="fill: url(#linear-gradient);"/>
</svg>